<svg width="60" height="60" viewBox="0 0 60 60" fill="none" xmlns="http://www.w3.org/2000/svg">
<rect x="0.5" y="0.5" width="59" height="59" rx="29.5" fill="white"/>
<rect x="0.5" y="0.5" width="59" height="59" rx="29.5" stroke="white"/>
<path d="M17.3935 40.6066C17.3935 41.7112 18.2889 42.6066 19.3935 42.6066L37.3935 42.6066C38.4981 42.6066 39.3935 41.7112 39.3935 40.6066C39.3935 39.502 38.4981 38.6066 37.3935 38.6066L21.3935 38.6066L21.3935 22.6066C21.3935 21.502 20.4981 20.6066 19.3935 20.6066C18.2889 20.6066 17.3935 21.502 17.3935 22.6066L17.3935 40.6066ZM39.1925 17.9792L17.9793 39.1924L20.8077 42.0208L42.0209 20.8076L39.1925 17.9792Z" fill="#222222"/>
</svg>
